<svg width="512" height="512" viewBox="0 0 512 512" fill="none" xmlns="http://www.w3.org/2000/svg">
  <rect width="512" height="512" rx="64" fill="#3B82F6"/>
  <path d="M256 64C167.634 64 96 135.634 96 224s71.634 160 160 160 160-71.634 160-160S344.366 64 256 64z" fill="white"/>
  <path d="M320 160H288V128c0-17.673-14.327-32-32-32s-32 14.327-32 32v32h-32c-17.673 0-32 14.327-32 32s14.327 32 32 32h32v96c0 17.673 14.327 32 32 32s32-14.327 32-32v-96h32c17.673 0 32-14.327 32-32s-14.327-32-32-32z" fill="#3B82F6"/>
  <text x="256" y="440" text-anchor="middle" font-family="Arial, sans-serif" font-size="48" font-weight="bold" fill="white">IA.TEX</text>
</svg>
